<mxfile host="app.diagrams.net" modified="2024-01-24T22:18:21.695Z" agent="Mozilla/5.0 (X11; Linux x86_64) AppleWebKit/537.36 (KHTML, like Gecko) Chrome/120.0.0.0 Safari/537.36" etag="L80aZ35aQGQlmgNFNG6L" version="23.0.1" type="github">
  <diagram name="Page-1" id="Maet5YbubFxrQ4zxhuXY">
    <mxGraphModel dx="2551" dy="538" grid="1" gridSize="10" guides="1" tooltips="1" connect="1" arrows="1" fold="1" page="1" pageScale="1" pageWidth="827" pageHeight="1169" math="0" shadow="0">
      <root>
        <mxCell id="0" />
        <mxCell id="1" parent="0" />
        <mxCell id="A5TsvPef6x5RPmhSlIB9-1" value="" style="rounded=0;whiteSpace=wrap;html=1;fillColor=none;strokeWidth=2;" vertex="1" parent="1">
          <mxGeometry x="-1250" y="40" width="930" height="845" as="geometry" />
        </mxCell>
        <mxCell id="A5TsvPef6x5RPmhSlIB9-30" style="rounded=0;orthogonalLoop=1;jettySize=auto;html=1;exitX=0.5;exitY=0;exitDx=0;exitDy=0;exitPerimeter=0;endArrow=none;endFill=0;strokeWidth=2;" edge="1" parent="1" source="A5TsvPef6x5RPmhSlIB9-2" target="A5TsvPef6x5RPmhSlIB9-25">
          <mxGeometry relative="1" as="geometry" />
        </mxCell>
        <mxCell id="A5TsvPef6x5RPmhSlIB9-31" style="edgeStyle=orthogonalEdgeStyle;rounded=0;orthogonalLoop=1;jettySize=auto;html=1;exitX=0.75;exitY=0.1;exitDx=0;exitDy=0;exitPerimeter=0;entryX=0;entryY=0.5;entryDx=0;entryDy=0;fillColor=#dae8fc;strokeColor=#6c8ebf;endArrow=none;endFill=0;strokeWidth=2;" edge="1" parent="1" source="A5TsvPef6x5RPmhSlIB9-2" target="A5TsvPef6x5RPmhSlIB9-27">
          <mxGeometry relative="1" as="geometry">
            <Array as="points">
              <mxPoint x="-1397" y="150" />
              <mxPoint x="-1230" y="150" />
              <mxPoint x="-1230" y="395" />
            </Array>
          </mxGeometry>
        </mxCell>
        <mxCell id="A5TsvPef6x5RPmhSlIB9-33" style="edgeStyle=orthogonalEdgeStyle;rounded=0;orthogonalLoop=1;jettySize=auto;html=1;exitX=0.75;exitY=0.1;exitDx=0;exitDy=0;exitPerimeter=0;entryX=0;entryY=0.5;entryDx=0;entryDy=0;fillColor=#d0cee2;strokeColor=#56517e;endArrow=none;endFill=0;strokeWidth=2;" edge="1" parent="1" source="A5TsvPef6x5RPmhSlIB9-2" target="A5TsvPef6x5RPmhSlIB9-28">
          <mxGeometry relative="1" as="geometry">
            <Array as="points">
              <mxPoint x="-1397" y="161" />
              <mxPoint x="-1220" y="161" />
              <mxPoint x="-1220" y="545" />
              <mxPoint x="-1180" y="545" />
            </Array>
          </mxGeometry>
        </mxCell>
        <mxCell id="A5TsvPef6x5RPmhSlIB9-40" style="edgeStyle=orthogonalEdgeStyle;rounded=0;orthogonalLoop=1;jettySize=auto;html=1;exitX=1;exitY=0.3333333333333333;exitDx=0;exitDy=0;exitPerimeter=0;entryX=0;entryY=0.5;entryDx=0;entryDy=0;strokeWidth=2;fillColor=#008a00;strokeColor=#005700;endArrow=none;endFill=0;" edge="1" parent="1" source="A5TsvPef6x5RPmhSlIB9-2" target="A5TsvPef6x5RPmhSlIB9-39">
          <mxGeometry relative="1" as="geometry">
            <Array as="points">
              <mxPoint x="-1240" y="160" />
              <mxPoint x="-1240" y="635" />
            </Array>
          </mxGeometry>
        </mxCell>
        <mxCell id="A5TsvPef6x5RPmhSlIB9-41" style="rounded=0;orthogonalLoop=1;jettySize=auto;html=1;exitX=1;exitY=0.3333333333333333;exitDx=0;exitDy=0;exitPerimeter=0;entryX=0;entryY=0.5;entryDx=0;entryDy=0;strokeWidth=2;fillColor=#1ba1e2;strokeColor=#006EAF;endArrow=none;endFill=0;" edge="1" parent="1" source="A5TsvPef6x5RPmhSlIB9-2" target="A5TsvPef6x5RPmhSlIB9-38">
          <mxGeometry relative="1" as="geometry">
            <Array as="points">
              <mxPoint x="-990" y="330" />
            </Array>
          </mxGeometry>
        </mxCell>
        <mxCell id="A5TsvPef6x5RPmhSlIB9-43" style="rounded=0;orthogonalLoop=1;jettySize=auto;html=1;entryX=0;entryY=0.5;entryDx=0;entryDy=0;fillColor=#fad9d5;strokeColor=#AE3232;strokeWidth=2;endArrow=none;endFill=0;" edge="1" parent="1" source="A5TsvPef6x5RPmhSlIB9-2" target="A5TsvPef6x5RPmhSlIB9-42">
          <mxGeometry relative="1" as="geometry">
            <Array as="points">
              <mxPoint x="-1270" y="670" />
            </Array>
          </mxGeometry>
        </mxCell>
        <mxCell id="A5TsvPef6x5RPmhSlIB9-2" value="Cliente" style="shape=umlActor;verticalLabelPosition=bottom;verticalAlign=top;html=1;outlineConnect=0;" vertex="1" parent="1">
          <mxGeometry x="-1420" y="140" width="30" height="60" as="geometry" />
        </mxCell>
        <mxCell id="A5TsvPef6x5RPmhSlIB9-4" value="Pessoa física" style="shape=umlActor;verticalLabelPosition=bottom;verticalAlign=top;html=1;outlineConnect=0;" vertex="1" parent="1">
          <mxGeometry x="-1480" y="235" width="30" height="60" as="geometry" />
        </mxCell>
        <mxCell id="A5TsvPef6x5RPmhSlIB9-5" value="Pessoa Jurídica&lt;br&gt;" style="shape=umlActor;verticalLabelPosition=bottom;verticalAlign=top;html=1;outlineConnect=0;" vertex="1" parent="1">
          <mxGeometry x="-1360" y="235" width="30" height="60" as="geometry" />
        </mxCell>
        <mxCell id="A5TsvPef6x5RPmhSlIB9-29" style="rounded=0;orthogonalLoop=1;jettySize=auto;html=1;exitX=0.5;exitY=0;exitDx=0;exitDy=0;exitPerimeter=0;entryX=1;entryY=0.5;entryDx=0;entryDy=0;endArrow=none;endFill=0;strokeWidth=2;" edge="1" parent="1" source="A5TsvPef6x5RPmhSlIB9-9" target="A5TsvPef6x5RPmhSlIB9-25">
          <mxGeometry relative="1" as="geometry" />
        </mxCell>
        <mxCell id="A5TsvPef6x5RPmhSlIB9-54" style="rounded=0;orthogonalLoop=1;jettySize=auto;html=1;entryX=1;entryY=0.5;entryDx=0;entryDy=0;fillColor=#fad9d5;strokeColor=#ae4132;strokeWidth=2;endArrow=none;endFill=0;" edge="1" parent="1" source="A5TsvPef6x5RPmhSlIB9-9" target="A5TsvPef6x5RPmhSlIB9-42">
          <mxGeometry relative="1" as="geometry">
            <Array as="points">
              <mxPoint x="-290" y="700" />
            </Array>
          </mxGeometry>
        </mxCell>
        <mxCell id="A5TsvPef6x5RPmhSlIB9-9" value="Funcionário" style="shape=umlActor;verticalLabelPosition=bottom;verticalAlign=top;html=1;outlineConnect=0;" vertex="1" parent="1">
          <mxGeometry x="-180" y="140" width="30" height="60" as="geometry" />
        </mxCell>
        <mxCell id="A5TsvPef6x5RPmhSlIB9-14" style="rounded=0;orthogonalLoop=1;jettySize=auto;html=1;exitX=0.25;exitY=0.1;exitDx=0;exitDy=0;exitPerimeter=0;entryX=1;entryY=1;entryDx=0;entryDy=0;entryPerimeter=0;endArrow=block;endFill=0;" edge="1" parent="1" source="A5TsvPef6x5RPmhSlIB9-5" target="A5TsvPef6x5RPmhSlIB9-2">
          <mxGeometry relative="1" as="geometry" />
        </mxCell>
        <mxCell id="A5TsvPef6x5RPmhSlIB9-15" style="rounded=0;orthogonalLoop=1;jettySize=auto;html=1;exitX=0.75;exitY=0.1;exitDx=0;exitDy=0;exitPerimeter=0;entryX=0;entryY=1;entryDx=0;entryDy=0;entryPerimeter=0;endArrow=block;endFill=0;" edge="1" parent="1" source="A5TsvPef6x5RPmhSlIB9-4" target="A5TsvPef6x5RPmhSlIB9-2">
          <mxGeometry relative="1" as="geometry" />
        </mxCell>
        <mxCell id="A5TsvPef6x5RPmhSlIB9-18" value="Gerente&lt;br&gt;" style="shape=umlActor;verticalLabelPosition=bottom;verticalAlign=top;html=1;outlineConnect=0;" vertex="1" parent="1">
          <mxGeometry x="-240" y="235" width="30" height="60" as="geometry" />
        </mxCell>
        <mxCell id="A5TsvPef6x5RPmhSlIB9-19" value="Caixa" style="shape=umlActor;verticalLabelPosition=bottom;verticalAlign=top;html=1;outlineConnect=0;" vertex="1" parent="1">
          <mxGeometry x="-110" y="235" width="30" height="60" as="geometry" />
        </mxCell>
        <mxCell id="A5TsvPef6x5RPmhSlIB9-21" style="rounded=0;orthogonalLoop=1;jettySize=auto;html=1;exitX=0.75;exitY=0.1;exitDx=0;exitDy=0;exitPerimeter=0;entryX=0;entryY=1;entryDx=0;entryDy=0;entryPerimeter=0;endArrow=block;endFill=0;" edge="1" parent="1" source="A5TsvPef6x5RPmhSlIB9-18" target="A5TsvPef6x5RPmhSlIB9-9">
          <mxGeometry relative="1" as="geometry" />
        </mxCell>
        <mxCell id="A5TsvPef6x5RPmhSlIB9-22" style="rounded=0;orthogonalLoop=1;jettySize=auto;html=1;exitX=0.25;exitY=0.1;exitDx=0;exitDy=0;exitPerimeter=0;entryX=1;entryY=1;entryDx=0;entryDy=0;entryPerimeter=0;endArrow=block;endFill=0;" edge="1" parent="1" source="A5TsvPef6x5RPmhSlIB9-19" target="A5TsvPef6x5RPmhSlIB9-9">
          <mxGeometry relative="1" as="geometry" />
        </mxCell>
        <mxCell id="A5TsvPef6x5RPmhSlIB9-23" value="Sitema Bancário" style="text;align=center;fontStyle=1;verticalAlign=middle;spacingLeft=3;spacingRight=3;strokeColor=none;rotatable=0;points=[[0,0.5],[1,0.5]];portConstraint=eastwest;html=1;fontSize=26;" vertex="1" parent="1">
          <mxGeometry x="-905" y="20" width="220" height="96" as="geometry" />
        </mxCell>
        <mxCell id="A5TsvPef6x5RPmhSlIB9-25" value="&lt;font style=&quot;font-size: 16px;&quot;&gt;Abrir Conta&lt;/font&gt;" style="ellipse;whiteSpace=wrap;html=1;" vertex="1" parent="1">
          <mxGeometry x="-865" y="110" width="140" height="70" as="geometry" />
        </mxCell>
        <mxCell id="A5TsvPef6x5RPmhSlIB9-27" value="&lt;span style=&quot;font-size: 16px;&quot;&gt;Tirar Extrato&lt;/span&gt;" style="ellipse;whiteSpace=wrap;html=1;" vertex="1" parent="1">
          <mxGeometry x="-1170" y="360" width="140" height="70" as="geometry" />
        </mxCell>
        <mxCell id="A5TsvPef6x5RPmhSlIB9-28" value="&lt;span style=&quot;font-size: 16px;&quot;&gt;Tirar Saldo&lt;br&gt;&lt;/span&gt;" style="ellipse;whiteSpace=wrap;html=1;fillColor=default;" vertex="1" parent="1">
          <mxGeometry x="-1180" y="515" width="140" height="70" as="geometry" />
        </mxCell>
        <mxCell id="A5TsvPef6x5RPmhSlIB9-36" style="edgeStyle=orthogonalEdgeStyle;rounded=0;orthogonalLoop=1;jettySize=auto;html=1;exitX=0.5;exitY=0;exitDx=0;exitDy=0;entryX=0;entryY=1;entryDx=0;entryDy=0;strokeWidth=2;endArrow=block;endFill=0;" edge="1" parent="1" source="A5TsvPef6x5RPmhSlIB9-34" target="A5TsvPef6x5RPmhSlIB9-25">
          <mxGeometry relative="1" as="geometry" />
        </mxCell>
        <mxCell id="A5TsvPef6x5RPmhSlIB9-34" value="Abrir Conta Corrente" style="ellipse;whiteSpace=wrap;html=1;" vertex="1" parent="1">
          <mxGeometry x="-967" y="240" width="140" height="70" as="geometry" />
        </mxCell>
        <mxCell id="A5TsvPef6x5RPmhSlIB9-37" style="edgeStyle=orthogonalEdgeStyle;rounded=0;orthogonalLoop=1;jettySize=auto;html=1;exitX=0.5;exitY=0;exitDx=0;exitDy=0;entryX=1;entryY=1;entryDx=0;entryDy=0;strokeWidth=2;endArrow=block;endFill=0;" edge="1" parent="1" source="A5TsvPef6x5RPmhSlIB9-35" target="A5TsvPef6x5RPmhSlIB9-25">
          <mxGeometry relative="1" as="geometry" />
        </mxCell>
        <mxCell id="A5TsvPef6x5RPmhSlIB9-35" value="Abrir Conta Poupança" style="ellipse;whiteSpace=wrap;html=1;" vertex="1" parent="1">
          <mxGeometry x="-760" y="240" width="140" height="70" as="geometry" />
        </mxCell>
        <mxCell id="A5TsvPef6x5RPmhSlIB9-50" style="edgeStyle=orthogonalEdgeStyle;rounded=0;orthogonalLoop=1;jettySize=auto;html=1;exitX=1;exitY=0.5;exitDx=0;exitDy=0;entryX=0.5;entryY=0;entryDx=0;entryDy=0;dashed=1;strokeWidth=2;" edge="1" parent="1" source="A5TsvPef6x5RPmhSlIB9-38" target="A5TsvPef6x5RPmhSlIB9-48">
          <mxGeometry relative="1" as="geometry" />
        </mxCell>
        <mxCell id="A5TsvPef6x5RPmhSlIB9-52" value="&amp;lt;&amp;lt;include&amp;gt;&amp;gt;" style="edgeLabel;html=1;align=center;verticalAlign=middle;resizable=0;points=[];fontSize=9;" vertex="1" connectable="0" parent="A5TsvPef6x5RPmhSlIB9-50">
          <mxGeometry x="0.108" y="2" relative="1" as="geometry">
            <mxPoint y="-13" as="offset" />
          </mxGeometry>
        </mxCell>
        <mxCell id="A5TsvPef6x5RPmhSlIB9-38" value="&lt;span style=&quot;font-size: 16px;&quot;&gt;Fazer Depósito&lt;br&gt;&lt;/span&gt;" style="ellipse;whiteSpace=wrap;html=1;fillColor=default;" vertex="1" parent="1">
          <mxGeometry x="-865" y="320" width="140" height="70" as="geometry" />
        </mxCell>
        <mxCell id="A5TsvPef6x5RPmhSlIB9-51" style="edgeStyle=orthogonalEdgeStyle;rounded=0;orthogonalLoop=1;jettySize=auto;html=1;exitX=1;exitY=0.5;exitDx=0;exitDy=0;entryX=0.5;entryY=1;entryDx=0;entryDy=0;strokeWidth=2;dashed=1;" edge="1" parent="1" source="A5TsvPef6x5RPmhSlIB9-39" target="A5TsvPef6x5RPmhSlIB9-48">
          <mxGeometry relative="1" as="geometry">
            <Array as="points">
              <mxPoint x="-615" y="635" />
            </Array>
          </mxGeometry>
        </mxCell>
        <mxCell id="A5TsvPef6x5RPmhSlIB9-55" style="rounded=0;orthogonalLoop=1;jettySize=auto;html=1;exitX=0.5;exitY=1;exitDx=0;exitDy=0;dashed=1;strokeWidth=2;" edge="1" parent="1" source="A5TsvPef6x5RPmhSlIB9-39" target="A5TsvPef6x5RPmhSlIB9-42">
          <mxGeometry relative="1" as="geometry" />
        </mxCell>
        <mxCell id="A5TsvPef6x5RPmhSlIB9-56" value="&amp;lt;&amp;lt;extend&amp;gt;&amp;gt;" style="edgeLabel;html=1;align=center;verticalAlign=middle;resizable=0;points=[];fontSize=8;rotation=90;" vertex="1" connectable="0" parent="A5TsvPef6x5RPmhSlIB9-55">
          <mxGeometry x="-0.0285" y="-3" relative="1" as="geometry">
            <mxPoint x="-12" y="-4" as="offset" />
          </mxGeometry>
        </mxCell>
        <mxCell id="A5TsvPef6x5RPmhSlIB9-39" value="&lt;span style=&quot;font-size: 16px;&quot;&gt;Fazer saque&lt;br&gt;&lt;/span&gt;" style="ellipse;whiteSpace=wrap;html=1;fillColor=default;" vertex="1" parent="1">
          <mxGeometry x="-865" y="600" width="140" height="70" as="geometry" />
        </mxCell>
        <mxCell id="A5TsvPef6x5RPmhSlIB9-42" value="&lt;span style=&quot;font-size: 16px;&quot;&gt;Encerrar Conta&lt;br&gt;&lt;/span&gt;" style="ellipse;whiteSpace=wrap;html=1;fillColor=default;" vertex="1" parent="1">
          <mxGeometry x="-865" y="760" width="140" height="70" as="geometry" />
        </mxCell>
        <mxCell id="A5TsvPef6x5RPmhSlIB9-45" style="rounded=0;orthogonalLoop=1;jettySize=auto;html=1;exitX=0.5;exitY=0;exitDx=0;exitDy=0;entryX=0.5;entryY=1;entryDx=0;entryDy=0;dashed=1;endArrow=none;endFill=0;strokeWidth=2;startArrow=classic;startFill=1;fontSize=8;" edge="1" parent="1" source="A5TsvPef6x5RPmhSlIB9-38" target="A5TsvPef6x5RPmhSlIB9-25">
          <mxGeometry relative="1" as="geometry">
            <mxPoint x="-796.48" y="320" as="sourcePoint" />
            <mxPoint x="-793.52" y="178.22" as="targetPoint" />
          </mxGeometry>
        </mxCell>
        <mxCell id="A5TsvPef6x5RPmhSlIB9-47" value="&amp;lt;&amp;lt;include&amp;gt;&amp;gt;" style="edgeLabel;html=1;align=center;verticalAlign=middle;resizable=0;points=[];rotation=90;fontSize=8;" vertex="1" connectable="0" parent="A5TsvPef6x5RPmhSlIB9-45">
          <mxGeometry x="-0.0148" y="-2" relative="1" as="geometry">
            <mxPoint x="8" y="-21" as="offset" />
          </mxGeometry>
        </mxCell>
        <mxCell id="A5TsvPef6x5RPmhSlIB9-48" value="&lt;span style=&quot;font-size: 16px;&quot;&gt;Registrar Transação&lt;br&gt;&lt;/span&gt;" style="ellipse;whiteSpace=wrap;html=1;fillColor=default;" vertex="1" parent="1">
          <mxGeometry x="-685" y="400" width="140" height="70" as="geometry" />
        </mxCell>
        <mxCell id="A5TsvPef6x5RPmhSlIB9-53" value="&amp;lt;&amp;lt;include&amp;gt;&amp;gt;" style="edgeLabel;html=1;align=center;verticalAlign=middle;resizable=0;points=[];fontSize=9;" vertex="1" connectable="0" parent="1">
          <mxGeometry x="-784.9993939393942" y="420" as="geometry" />
        </mxCell>
        <mxCell id="A5TsvPef6x5RPmhSlIB9-59" style="edgeStyle=orthogonalEdgeStyle;rounded=0;orthogonalLoop=1;jettySize=auto;html=1;exitX=0;exitY=0.5;exitDx=0;exitDy=0;endArrow=none;endFill=0;dashed=1;strokeWidth=2;" edge="1" parent="1" source="A5TsvPef6x5RPmhSlIB9-57">
          <mxGeometry relative="1" as="geometry">
            <mxPoint x="-790" y="705" as="targetPoint" />
          </mxGeometry>
        </mxCell>
        <mxCell id="A5TsvPef6x5RPmhSlIB9-57" value="Se Houver Saldo" style="html=1;dropTarget=0;whiteSpace=wrap;fontSize=7;align=left;" vertex="1" parent="1">
          <mxGeometry x="-725" y="680" width="85" height="50" as="geometry" />
        </mxCell>
        <mxCell id="A5TsvPef6x5RPmhSlIB9-58" value="" style="shape=module;jettyWidth=8;jettyHeight=4;" vertex="1" parent="A5TsvPef6x5RPmhSlIB9-57">
          <mxGeometry x="1" width="20" height="20" relative="1" as="geometry">
            <mxPoint x="-27" y="7" as="offset" />
          </mxGeometry>
        </mxCell>
      </root>
    </mxGraphModel>
  </diagram>
</mxfile>
